HIERARCHY
ROOT Hips
{
 OFFSET 0.000000 0.000000 0.000000
 CHANNELS 6 Xposition Yposition Zposition Yrotation Xrotation Zrotation
 JOINT Chest
 {
  OFFSET 0.000000 9.585900 0.002600
  CHANNELS 3 Yrotation Xrotation Zrotation
  JOINT Chest2
  {
   OFFSET 0.000000 9.601200 -0.005300
   CHANNELS 3 Yrotation Xrotation Zrotation
   JOINT Chest3
   {
    OFFSET 0.000000 9.561800 0.000000
    CHANNELS 3 Yrotation Xrotation Zrotation
    JOINT Chest4
    {
     OFFSET 0.000000 9.552100 0.000000
     CHANNELS 3 Yrotation Xrotation Zrotation
     JOINT Neck
     {
      OFFSET 0.000000 14.453000 0.000000
      CHANNELS 3 Yrotation Xrotation Zrotation
      JOINT Head
      {
       OFFSET 0.000000 8.936500 -0.011300
       CHANNELS 3 Yrotation Xrotation Zrotation
       End Site
       {
        OFFSET 0.000000 17.073600 -0.006000
       }
      }
     }
     JOINT RightCollar
     {
      OFFSET -2.921100 9.558500 0.000000
      CHANNELS 3 Yrotation Xrotation Zrotation
      JOINT RightShoulder
      {
       OFFSET -13.519700 0.000000 0.000000
       CHANNELS 3 Yrotation Xrotation Zrotation
       JOINT RightElbow
       {
        OFFSET 0.000000 -29.696600 0.000000
        CHANNELS 3 Yrotation Xrotation Zrotation
        JOINT RightWrist
        {
         OFFSET 0.000000 -24.004700 0.000000
         CHANNELS 3 Yrotation Xrotation Zrotation
         End Site
         {
          OFFSET 0.000000 -17.728500 0.000000
         }
        }
       }
      }
     }
     JOINT LeftCollar
     {
      OFFSET 2.921100 9.558500 0.000000
      CHANNELS 3 Yrotation Xrotation Zrotation
      JOINT LeftShoulder
      {
       OFFSET 13.519700 0.000000 0.000000
       CHANNELS 3 Yrotation Xrotation Zrotation
       JOINT LeftElbow
       {
        OFFSET 0.000000 -29.696600 0.000000
        CHANNELS 3 Yrotation Xrotation Zrotation
        JOINT LeftWrist
        {
         OFFSET 0.000000 -24.004700 0.000000
         CHANNELS 3 Yrotation Xrotation Zrotation
         End Site
         {
          OFFSET 0.000000 -17.728500 0.000000
         }
        }
       }
      }
     }
    }
   }
  }
 }
 JOINT RightHip
 {
  OFFSET -7.771700 -0.012900 -0.001300
  CHANNELS 3 Yrotation Xrotation Zrotation
  JOINT RightKnee
  {
   OFFSET 0.000000 -40.869800 0.001200
   CHANNELS 3 Yrotation Xrotation Zrotation
   JOINT RightAnkle
   {
    OFFSET 0.000000 -39.717900 0.002100
    CHANNELS 3 Yrotation Xrotation Zrotation
    JOINT RightToe
    {
     OFFSET 0.000000 -4.965400 11.033500
     CHANNELS 3 Yrotation Xrotation Zrotation
     End Site
     {
      OFFSET 0.000000 -1.423100 5.872300
     }
    }
   }
  }
 }
 JOINT LeftHip
 {
  OFFSET 7.771700 -0.012900 -0.001300
  CHANNELS 3 Yrotation Xrotation Zrotation
  JOINT LeftKnee
  {
   OFFSET 0.000000 -40.869800 0.001200
   CHANNELS 3 Yrotation Xrotation Zrotation
   JOINT LeftAnkle
   {
    OFFSET 0.000000 -39.717900 0.002100
    CHANNELS 3 Yrotation Xrotation Zrotation
    JOINT LeftToe
    {
     OFFSET 0.000000 -4.965400 11.033500
     CHANNELS 3 Yrotation Xrotation Zrotation
     End Site
     {
      OFFSET 0.000000 -1.423100 5.872300
     }
    }
   }
  }
 }
}
MOTION
Frames: 11
Frame Time: 0.008333
-120.529796 46.704248 -38.272862 174.325575 -33.678612 -3.601065 1.255769 17.404291 0.976991 0.148901 1.901577 0.146082 0.174618 3.139770 0.173425 0.964991 15.353160 0.959642 -0.794428 20.081027 -0.719672 -1.067341 1.484232 -1.057591 -1.137050 0.724157 -1.118943 5.382427 -7.581832 -16.416942 -43.224684 -56.597428 95.863351 -2.015345 2.170071 -16.971215 0.860635 0.180712 2.907371 -4.687693 -1.779949 12.861071 65.645303 -69.307577 -105.046947 -2.416010 11.325394 7.289802 -3.694052 -52.168140 1.458428 -150.308993 75.833349 -141.228210 -10.950486 -17.634473 -6.205542 -0.478907 -0.896004 0.067895 -1.111813 -55.490822 14.497943 -105.945763 82.002125 -110.461676 7.661658 -4.704077 4.701104 0.524672 0.087012 0.220505
-120.532992 46.702193 -38.281665 174.385920 -33.669451 -3.620631 1.294193 17.424434 1.076359 0.103983 1.888437 0.103512 0.174775 3.139523 0.174131 0.950233 15.348140 0.951624 -0.726992 20.060851 -0.711204 -1.096775 1.444592 -1.085815 -1.088461 0.727813 -1.097612 5.325623 -7.577245 -16.449705 -43.257208 -56.587650 95.903380 -2.007440 2.157292 -16.967782 0.935796 0.196599 2.938667 -4.784850 -1.819527 12.815392 65.702058 -69.341865 -105.045101 -2.425042 11.348417 7.253771 -3.707962 -52.184005 1.397454 -150.405922 75.857872 -141.323345 -11.005992 -17.480279 -6.258581 -0.399563 -0.876822 0.076542 -1.141411 -55.496770 14.470452 -105.965404 82.005835 -110.480752 7.719616 -4.728806 4.730936 0.461389 0.097659 0.190971
-120.536497 46.700201 -38.287558 174.428429 -33.648859 -3.620882 1.298609 17.421537 1.110647 0.104050 1.888499 0.104011 0.149775 3.131460 0.151993 0.934981 15.343730 0.941633 -0.656611 20.052919 -0.696203 -1.109155 1.408710 -1.110286 -1.090041 0.726770 -1.098472 5.324054 -7.575228 -16.452554 -43.265311 -56.578515 95.944394 -2.004457 2.144703 -16.960085 0.964058 0.206105 2.952433 -4.752093 -1.849405 12.813453 65.692936 -69.357161 -105.036937 -2.422455 11.355698 7.199177 -3.655375 -52.219155 1.278460 -150.618579 75.889822 -141.508380 -10.991337 -17.300163 -6.304550 -0.366005 -0.871126 0.060359 -1.144992 -55.514665 14.430278 -105.983485 82.017026 -110.499899 7.709964 -4.746101 4.744618 0.451653 0.111898 0.180284
-120.541061 46.700109 -38.293199 174.462489 -33.633601 -3.596955 1.305249 17.423597 1.126623 0.103761 1.888722 0.104638 0.123817 3.124574 0.128584 0.969062 15.352530 0.967005 -0.693350 20.033025 -0.718354 -1.066935 1.368030 -1.141813 -1.066913 0.728698 -1.075292 5.292282 -7.579903 -16.488339 -43.293565 -56.578539 95.962865 -2.001328 2.145558 -16.949508 0.952362 0.210953 2.954364 -4.730364 -1.884047 12.805959 65.663208 -69.357553 -105.017720 -2.430929 11.368509 7.206948 -3.511477 -52.260304 1.060811 -150.991211 75.929696 -141.816328 -10.960099 -17.108837 -6.337408 -0.358052 -0.870712 0.029010 -1.111269 -55.525324 14.354851 -106.032027 82.040642 -110.550974 7.689164 -4.761812 4.756636 0.423879 0.122034 0.172771
-120.538714 46.702620 -38.298067 174.510663 -33.624565 -3.605159 1.308354 17.431576 1.169372 0.103004 1.889025 0.105397 0.161079 3.136726 0.165367 0.975131 15.358006 0.989634 -0.794606 19.996749 -0.786859 -1.017969 1.327133 -1.174310 -1.112499 0.710568 -1.109446 5.328466 -7.577352 -16.505167 -43.356257 -56.576295 96.014553 -1.997352 2.158241 -16.992174 0.900611 0.209859 2.920846 -4.722225 -1.920566 12.783728 65.620585 -69.359969 -104.979645 -2.428528 11.380070 7.225306 -3.500535 -52.279814 0.990321 -151.206430 75.977447 -142.029709 -10.991450 -16.946276 -6.353517 -0.319347 -0.837671 0.013258 -1.127877 -55.526664 14.323904 -106.009665 82.050203 -110.530890 7.707430 -4.783343 4.768696 0.412594 0.133064 0.164225
-120.535687 46.708237 -38.304702 174.586502 -33.631077 -3.610776 1.283909 17.456105 1.195392 0.101867 1.889749 0.106282 0.171343 3.141661 0.178630 0.951144 15.356878 0.983746 -0.732711 19.971823 -0.788381 -1.094165 1.312881 -1.190348 -1.135734 0.698828 -1.133851 5.318061 -7.580431 -16.518436 -43.361596 -56.568216 96.055210 -1.997265 2.169157 -16.988676 0.895642 0.218574 2.913606 -4.712712 -1.941855 12.771052 65.577637 -69.354219 -104.933667 -2.435805 11.366323 7.200089 -3.488411 -52.280657 0.885985 -151.321346 75.985728 -142.137887 -10.990470 -16.813772 -6.375102 -0.270662 -0.798149 0.008673 -1.142301 -55.507080 14.264254 -105.950897 82.058937 -110.473140 7.697466 -4.808959 4.793721 0.384898 0.142501 0.147494
-120.529888 46.715008 -38.310321 174.668778 -33.634050 -3.613189 1.252328 17.475257 1.216157 0.088536 1.888227 0.093994 0.157513 3.139358 0.166768 0.971106 15.369050 1.017017 -0.724695 19.950061 -0.807350 -1.051740 1.261580 -1.235848 -1.116580 0.704617 -1.134400 5.311853 -7.595854 -16.549048 -43.374309 -56.562918 96.057097 -1.989814 2.173179 -17.012319 0.891801 0.225648 2.904452 -4.678377 -1.932872 12.756231 65.576017 -69.355372 -104.956135 -2.420727 11.370435 7.243593 -3.444896 -52.287122 0.730651 -151.512027 75.998919 -142.302097 -10.966381 -16.673000 -6.400553 -0.236796 -0.767992 0.002833 -1.153064 -55.496491 14.196774 -105.967504 82.100286 -110.489524 7.668630 -4.805752 4.803703 0.377105 0.132894 0.142903
-120.518250 46.724439 -38.317284 174.760220 -33.650772 -3.628962 1.216968 17.506949 1.247160 0.051040 1.880986 0.054999 0.205509 3.155521 0.220977 0.918101 15.360832 0.981075 -0.664500 19.939559 -0.793692 -1.026040 1.209249 -1.282705 -1.071610 0.725544 -1.111955 5.349852 -7.606057 -16.561318 -43.403246 -56.579502 95.996848 -1.991377 2.180604 -17.010882 0.889834 0.228786 2.899043 -4.688658 -1.941937 12.741469 65.481498 -69.349621 -104.820645 -2.399908 11.378022 7.293836 -3.425101 -52.279758 0.594730 -151.682414 76.017621 -142.456077 -10.971157 -16.521496 -6.427593 -0.172349 -0.741585 0.014176 -1.179023 -55.472628 14.140712 -105.980559 82.127860 -110.499994 7.715414 -4.801682 4.831434 0.311985 0.116382 0.113191
-120.500982 46.733620 -38.321844 174.832842 -33.653773 -3.642897 1.197551 17.524636 1.286575 0.050473 1.881467 0.056225 0.215000 3.164404 0.236450 0.865488 15.351364 0.944804 -0.620911 19.929518 -0.786715 -1.005668 1.164059 -1.318144 -1.067739 0.727940 -1.117408 5.374633 -7.605380 -16.554608 -43.411613 -56.593338 95.972894 -2.016932 2.237943 -16.923893 0.887293 0.230222 2.892447 -4.672265 -1.926542 12.733873 65.465836 -69.348532 -104.800770 -2.382643 11.389538 7.335432 -3.409353 -52.293252 0.476884 -151.828526 76.035506 -142.601433 -10.933062 -16.319960 -6.442487 -0.140096 -0.741171 0.013670 -1.202963 -55.462518 14.101634 -106.002850 82.158112 -110.518600 7.715928 -4.815662 4.855904 0.272319 0.120266 0.089650
-120.478217 46.744182 -38.327018 174.897605 -33.662318 -3.659917 1.162150 17.542604 1.300093 0.076198 1.888725 0.084407 0.186555 3.160077 0.210647 0.929174 15.386970 1.025564 -0.665775 19.883951 -0.841051 -0.985802 1.116913 -1.349496 -1.131551 0.693800 -1.179968 5.404165 -7.601722 -16.543606 -43.418134 -56.597403 95.965970 -2.022463 2.263644 -16.917781 0.842078 0.213223 2.851286 -4.688006 -1.928783 12.705970 65.517476 -69.349144 -104.864379 -2.352455 11.422844 7.409782 -3.407567 -52.304639 0.381681 -151.891069 76.043457 -142.684380 -10.879577 -16.098734 -6.435747 -0.104078 -0.740732 0.007841 -1.229791 -55.446087 14.085914 -106.013900 82.180035 -110.523779 7.694105 -4.822878 4.868986 0.248745 0.123964 0.073416
-120.456588 46.755342 -38.333290 174.966293 -33.672313 -3.650077 1.112622 17.563547 1.282228 0.139469 1.914217 0.162350 0.118155 3.137042 0.135991 0.938893 15.396939 1.043593 -0.641913 19.866031 -0.843344 -0.966920 1.068959 -1.376740 -1.110077 0.701064 -1.178061 5.410556 -7.609182 -16.547607 -43.409842 -56.596116 95.943229 -2.028411 2.278913 -16.916568 0.895147 0.254764 2.890649 -4.742058 -1.938222 12.657839 65.561152 -69.356826 -104.882806 -2.344813 11.427896 7.438643 -3.369106 -52.324063 0.236943 -151.874354 76.020155 -142.700592 -10.825413 -15.891247 -6.386375 -0.055013 -0.728270 -0.010460 -1.217196 -55.430632 14.012682 -106.062729 82.209497 -110.564448 7.715381 -4.812551 4.888016 0.177651 0.105506 0.045531
